<svg width="550" height="550" viewBox="0 0 550 550" fill="none" xmlns="http://www.w3.org/2000/svg">
<g clip-path="url(#clip0_8_354)">
<rect width="550" height="550" fill="#F5F7FB"/>
<path fill-rule="evenodd" clip-rule="evenodd" d="M-5.55191 436.906C35.9614 433.775 82.2425 422.279 112.306 451.109C145.581 483.02 155.282 534.703 142.701 579.081C130.767 621.18 93.7448 652.092 51.8208 664.476C16.5281 674.902 -15.4332 650.605 -49.1007 635.738C-85.3375 619.737 -133.641 614.993 -145.741 577.239C-158.358 537.868 -132.269 496.588 -103.064 467.353C-77.7328 441.995 -41.2727 439.6 -5.55191 436.906Z" fill="#DEEBF8"/>
<path fill-rule="evenodd" clip-rule="evenodd" d="M455.409 81.3947C427.121 50.8507 389.318 21.7816 393.173 -19.6933C397.439 -65.599 431.854 -105.359 474.419 -123.133C514.797 -139.994 562.035 -130.256 597.822 -105.149C627.947 -84.0141 628.823 -43.8756 638.141 -8.27104C648.17 30.0508 674.521 70.8106 652.501 103.779C629.539 138.159 580.991 143.432 539.931 138.768C504.318 134.723 479.751 107.677 455.409 81.3947Z" fill="#FFFAD1"/>
</g>
<defs>
<clipPath id="clip0_8_354">
<rect width="550" height="550" fill="white"/>
</clipPath>
</defs>
</svg>
